<svg width="47" height="33" viewBox="0 0 47 33" fill="none" xmlns="http://www.w3.org/2000/svg">
<g clip-path="url(#clip0_822_7938)">
<path d="M33.5557 32V18H37.2357V23.48L42.0557 18H46.5157L41.3157 23.82L46.8357 32H42.3957L38.7357 26.48L37.2357 28.16V32H33.5557Z" fill="#C61F1F"/>
<path d="M25.5901 32.12C21.3701 32.12 18.8301 29.32 18.8301 25C18.8301 20.68 21.4501 17.88 25.7901 17.88C29.2301 17.88 31.6301 20.1 31.8901 23.22H28.2101C27.9501 21.88 27.0301 20.92 25.5901 20.92C23.6701 20.92 22.5901 22.6 22.5901 25C22.5901 27.4 23.6701 29.08 25.5901 29.08C27.0301 29.08 27.9501 28.12 28.2101 26.78H31.8901C31.6301 29.9 29.1501 32.12 25.5901 32.12Z" fill="#C61F1F"/>
<path d="M13 32V18H16.68V32H13Z" fill="#C61F1F"/>
<path d="M0 21.12V18H11.24V21.12H7.46V32H3.78V21.12H0Z" fill="#C61F1F"/>
<path d="M29.1477 14H19.3477V0H23.0277V10.88H29.1477V14Z" fill="#C61F1F"/>
<path d="M13 14V0H16.68V14H13Z" fill="#C61F1F"/>
<path d="M0.0996094 14V0H5.63961C8.99961 0 10.9996 1.32 10.9996 3.7C10.9996 5.54 9.87961 6.56 8.11961 6.82C10.1796 7.04 11.4596 8.04 11.4596 10.02C11.4596 12.46 9.45961 14 5.93961 14H0.0996094ZM5.69961 2.78H3.77961V5.58H5.69961C6.71961 5.58 7.31961 5.02 7.31961 4.18C7.31961 3.34 6.71961 2.78 5.69961 2.78ZM5.97961 8.32H3.77961V11.2H5.97961C7.03961 11.2 7.67961 10.66 7.67961 9.76C7.67961 8.86 7.03961 8.32 5.97961 8.32Z" fill="#C61F1F"/>
<path d="M46 5.44444H46.25V5.19444V1.22222C46.25 0.676468 45.7933 0.25 45.25 0.25H31.75C31.2067 0.25 30.75 0.676464 30.75 1.22222V12.7778C30.75 13.3235 31.2067 13.75 31.75 13.75H45.25C45.7933 13.75 46.25 13.3235 46.25 12.7778V8.80556V8.55556H46C45.0936 8.55556 44.375 7.8503 44.375 7C44.375 6.14971 45.0936 5.44444 46 5.44444ZM36.625 11.0833C36.0962 11.0833 35.6324 11.3737 35.4026 11.8056H32.75V2.19444H35.4026C35.6324 2.62625 36.0962 2.91667 36.625 2.91667C37.1538 2.91667 37.6175 2.62625 37.8474 2.19444H44.25V3.93415C43.1357 4.52836 42.375 5.67582 42.375 7C42.375 8.32411 43.1357 9.47164 44.25 10.0658V11.8056H37.8474C37.6175 11.3737 37.1538 11.0833 36.625 11.0833Z" fill="#C61F1F" stroke="#C61F1F" stroke-width="0.5"/>
</g>
<defs>
<clipPath id="clip0_822_7938">
<rect width="46.8355" height="32.12" fill="white"/>
</clipPath>
</defs>
</svg>
